<svg data-v-423bf9ae="" xmlns="http://www.w3.org/2000/svg" viewBox="0 0 302 90" class="iconLeft"><!----><!----><!----><g data-v-423bf9ae="" id="231b4da6-1b48-4ecf-9615-8df016bedd23" fill="#bc85ff" transform="matrix(5.917160119482044,0,0,5.917160119482044,128.7710244337046,-27.89941086624482)"><path d="M6.10 17.18L5.53 15.22L2.18 15.22L1.61 17.18L0.21 17.18L2.80 8.43L4.91 8.43L7.50 17.18L6.10 17.18ZM2.51 14.11L5.21 14.11L3.92 9.72L3.79 9.72L2.51 14.11ZM10.30 16.14L10.30 16.14Q10.58 16.18 10.95 16.21L10.95 16.21L10.86 17.16L10.86 17.16Q10.35 17.32 9.94 17.32L9.94 17.32L9.94 17.32Q9.41 17.32 9.16 17.06L9.16 17.06L9.16 17.06Q8.90 16.80 8.90 16.27L8.90 16.27L8.90 8.08L10.30 7.87L10.30 16.14ZM12.61 17.18L12.61 17.18ZM12.77 10.28L14.17 10.07L14.17 17.18L12.77 17.18L12.77 10.28ZM13.48 8.96L13.48 8.96Q12.96 8.96 12.79 8.79L12.79 8.79L12.79 8.79Q12.61 8.61 12.61 8.12L12.61 8.12L12.61 8.12Q12.61 7.62 12.80 7.43L12.80 7.43L12.80 7.43Q12.98 7.25 13.48 7.25L13.48 7.25L13.48 7.25Q13.97 7.25 14.15 7.43L14.15 7.43L14.15 7.43Q14.32 7.62 14.32 8.12L14.32 8.12L14.32 8.12Q14.32 8.61 14.15 8.79L14.15 8.79L14.15 8.79Q13.99 8.96 13.48 8.96L13.48 8.96ZM19.29 10.04L19.29 10.04Q20.26 10.04 20.82 10.23L20.82 10.23L20.82 10.23Q21.38 10.42 21.62 10.84L21.62 10.84L21.62 10.84Q21.87 11.27 21.87 12.00L21.87 12.00L21.87 17.18L21.22 17.18L20.85 16.48L20.85 16.48Q20.34 16.91 19.73 17.12L19.73 17.12L19.73 17.12Q19.12 17.32 18.34 17.32L18.34 17.32L18.34 17.32Q17.18 17.32 16.69 16.84L16.69 16.84L16.69 16.84Q16.20 16.35 16.20 15.22L16.20 15.22L16.20 15.22Q16.20 14.20 16.48 13.75L16.48 13.75L16.48 13.75Q16.76 13.30 17.58 13.15L17.58 13.15L17.58 13.15Q18.40 12.99 20.26 12.99L20.26 12.99L20.47 12.99L20.47 11.30L20.47 11.30Q19.95 11.14 19.05 11.14L19.05 11.14L19.05 11.14Q17.93 11.14 16.69 11.48L16.69 11.48L16.51 10.46L16.51 10.46Q17.02 10.28 17.79 10.16L17.79 10.16L17.79 10.16Q18.56 10.04 19.29 10.04L19.29 10.04ZM19.35 16.24L19.35 16.24Q20.01 16.24 20.24 16.07L20.24 16.07L20.24 16.07Q20.47 15.90 20.47 15.43L20.47 15.43L20.47 13.90L18.61 13.90L18.61 13.90Q17.95 13.90 17.71 14.07L17.71 14.07L17.71 14.07Q17.47 14.24 17.47 14.71L17.47 14.71L17.47 16.24L19.35 16.24ZM23.84 12.05L23.84 12.05Q23.84 10.98 24.48 10.47L24.48 10.47L24.48 10.47Q25.12 9.97 26.49 9.97L26.49 9.97L26.49 9.97Q27.71 9.97 28.81 10.28L28.81 10.28L28.62 11.30L28.62 11.30Q28.27 11.20 27.79 11.14L27.79 11.14L27.79 11.14Q27.31 11.07 26.91 11.07L26.91 11.07L26.91 11.07Q26.07 11.07 25.31 11.20L25.31 11.20L25.31 12.85L25.31 12.85Q26.99 13.09 27.78 13.34L27.78 13.34L27.78 13.34Q28.57 13.58 28.87 13.99L28.87 13.99L28.87 13.99Q29.16 14.41 29.16 15.20L29.16 15.20L29.16 15.20Q29.16 16.00 28.88 16.48L28.88 16.48L28.88 16.48Q28.59 16.95 27.94 17.17L27.94 17.17L27.94 17.17Q27.30 17.39 26.22 17.39L26.22 17.39L26.22 17.39Q25.02 17.39 23.69 16.98L23.69 16.98L23.91 15.86L23.91 15.86Q24.99 16.28 26.21 16.28L26.21 16.28L26.21 16.28Q26.63 16.28 26.95 16.24L26.95 16.24L26.95 16.24Q27.27 16.20 27.69 16.09L27.69 16.09L27.69 14.43L27.69 14.43Q25.89 14.18 25.12 13.94L25.12 13.94L25.12 13.94Q24.35 13.71 24.09 13.31L24.09 13.31L24.09 13.31Q23.84 12.91 23.84 12.05L23.84 12.05Z"></path></g><!----><g data-v-423bf9ae="" id="986d1886-f746-47bc-9fd0-d7d1ebbc166f" transform="matrix(1.2278307810771871,0,0,1.2278307810771871,-6.214316446220899,-16.09849870956029)" stroke="none" fill="#bc85ff"><path d="M89.7 45.3H76.6V21.5c0-4.4-3.6-7.9-7.9-7.9H13.2c-4.4 0-7.9 3.6-7.9 7.9v32.2c0 4.4 3.6 7.9 7.9 7.9h8.7V77l15.8-15.4h10.5v9.9c0 2.9 2.3 5.2 5.2 5.2h20.3L84 86.9V76.8h5.7c2.9 0 5.2-2.3 5.2-5.2V50.5c0-2.8-2.3-5.2-5.2-5.2zm2.2 26.3c0 1.2-1 2.2-2.2 2.2H81v6l-5.2-5.1-.9-.9H53.4c-1.2 0-2.2-1-2.2-2.2V50.5c0-1.2 1-2.2 2.2-2.2h36.3c1.2 0 2.2 1 2.2 2.2v21.1z"></path></g><!----></svg>